<svg width="63" height="63" viewBox="0 0 63 63" fill="none" xmlns="http://www.w3.org/2000/svg">
<path fill-rule="evenodd" clip-rule="evenodd" d="M31.5 0C22.6511 7.52325 17.1045 7.875 7.875 7.875V38.1544C7.875 50.2373 16.2829 53.3899 31.5 63C46.7171 53.3899 55.125 50.2373 55.125 38.1544V7.875C45.8955 7.875 40.3489 7.52325 31.5 0ZM31.5 3.3915C39.2227 9.45525 44.94 10.3609 52.5 10.4816V38.1544C52.5 48.3682 45.5752 51.1298 31.5 59.8999C17.3906 51.1061 10.5 48.3131 10.5 38.1544V10.4816C18.06 10.3609 23.7773 9.45525 31.5 3.3915V3.3915ZM44.625 23.7064L28.896 41.0918L19.257 30.7729L21.0971 28.98L28.9931 37.338L42.714 21.9082L44.625 23.7064Z" fill="#5D78FF"/>
</svg>
