<svg width="63" height="63" viewBox="0 0 63 63" fill="none" xmlns="http://www.w3.org/2000/svg">
<g clip-path="url(#clip0_1_6)">
<path fill-rule="evenodd" clip-rule="evenodd" d="M38.7371 52.9489C36.6607 54.3217 34.1749 55.125 31.5 55.125C24.255 55.125 18.375 49.245 18.375 42C18.375 34.755 24.255 28.875 31.5 28.875C38.745 28.875 44.625 34.755 44.625 42C44.625 44.6749 43.8217 47.1607 42.4489 49.2371L49.875 56.6633L46.1633 60.375L38.7371 52.9489V52.9489ZM14.8969 49.875C5.87213 49.875 0 42.9739 0 35.4375C0 28.3448 5.12137 22.4569 11.8676 21.2415C12.4241 10.8701 20.9842 2.625 31.5 2.625C42.0158 2.625 50.5759 10.8701 51.1324 21.2415C57.8786 22.4569 63 28.3448 63 35.4375C63 42.9319 57.1778 49.875 48.1031 49.875C48.8906 48.2213 49.4366 46.4363 49.6991 44.5568C54.2299 43.995 57.75 40.1179 57.75 35.4375C57.75 27.6439 50.694 25.5517 46.116 25.6725C46.9639 15.2171 40.5641 7.875 31.5 7.875C22.6826 7.875 16.4483 14.6002 16.8866 25.6725C11.7574 25.3759 5.25 28.0954 5.25 35.4375C5.25 40.1179 8.77012 43.995 13.3035 44.5568C13.5634 46.4363 14.1094 48.2213 14.8969 49.875V49.875ZM31.5 34.125C35.8444 34.125 39.375 37.6556 39.375 42C39.375 46.3444 35.8444 49.875 31.5 49.875C27.153 49.875 23.625 46.3444 23.625 42C23.625 37.6556 27.153 34.125 31.5 34.125Z" fill="#5D78FF"/>
</g>
<defs>
<clipPath id="clip0_1_6">
<rect width="63" height="63" fill="white"/>
</clipPath>
</defs>
</svg>
