<svg width="63" height="63" viewBox="0 0 63 63" fill="none" xmlns="http://www.w3.org/2000/svg">
<path d="M31.7268 0.6174C14.6349 0.5103 0.5355 14.5152 0.63 31.5189C0.63 48.4659 14.4711 62.37 31.374 62.3826C48.4281 62.3952 62.3637 48.5289 62.37 31.5441C62.3763 14.6097 48.5289 0.7308 31.7268 0.6174ZM19.1898 56.3283C17.2557 55.5156 15.5421 54.3312 13.9419 53.0082C7.7679 47.8611 4.3533 41.265 3.78 33.2514C3.4776 29.043 4.158 24.9606 5.7645 21.0483C5.8464 20.8467 5.859 20.4939 6.1425 20.5128C6.3567 20.5317 6.3756 20.853 6.4386 21.0483C10.6155 32.4828 14.7861 43.911 18.9567 55.3455C19.0701 55.6416 19.152 55.9629 19.2465 56.2716V56.322L19.1898 56.3283ZM40.005 57.9222C34.8327 59.5539 29.6289 59.6799 24.3684 58.3317C23.6628 58.1616 23.7384 57.8214 23.9148 57.3111C25.8111 51.8364 27.6885 46.3806 29.5722 40.9059C30.2589 38.9151 30.933 36.9243 31.6197 34.9524C31.7016 34.713 31.7331 34.4358 32.0481 34.1649C32.3442 34.965 32.6214 35.6895 32.886 36.4203C35.3997 43.2999 37.9008 50.1732 40.4271 57.0528C40.6098 57.5505 40.5216 57.7584 40.005 57.9222ZM45.3852 47.9619C45.0891 47.7603 45.0702 47.502 44.9946 47.2878C41.8698 38.0079 38.745 28.728 35.6265 19.4481C35.3115 18.5157 35.3178 18.522 36.3195 18.4212C37.0314 18.3582 37.7433 18.2952 38.4489 18.1944C39.1734 18.0873 39.5577 17.5896 39.4947 16.947C39.438 16.317 39.0033 15.9453 38.2788 15.9705C36.5526 16.0398 34.8201 16.1721 33.0876 16.2414C30.051 16.3485 27.0207 16.1595 23.9967 15.9768C23.8455 15.9642 23.6943 15.9516 23.5431 15.9642C22.8879 16.002 22.4784 16.3674 22.4154 16.9911C22.3524 17.577 22.7304 18.0873 23.3667 18.1818C24.1542 18.2952 24.9543 18.3771 25.7544 18.4401C26.1513 18.4716 26.3907 18.5913 26.5356 18.9756C27.8649 22.6422 29.2005 26.3088 30.5424 29.9691C30.6558 30.2778 30.5991 30.5613 30.4983 30.8511C28.6272 36.4581 26.7561 42.0714 24.885 47.6847C24.8283 47.8611 24.7905 48.069 24.6015 48.1887C24.3495 48.0627 24.3432 47.7981 24.2739 47.5839C21.105 38.1969 17.9487 28.8099 14.7987 19.4292C14.49 18.5094 14.4963 18.5094 15.4476 18.4275C16.1154 18.3708 16.7895 18.3141 17.451 18.2196C18.2763 18.1125 18.7299 17.6274 18.6669 16.9848C18.6039 16.2918 18.1314 15.939 17.2683 15.9642C15.0381 16.0461 12.8205 16.2855 10.584 16.254C10.0611 16.2477 9.5445 16.254 9.0216 16.2414C8.8389 16.2351 8.5932 16.3233 8.4987 16.0965C8.4294 15.9201 8.5932 15.7752 8.694 15.6366C9.8343 13.9923 11.1258 12.4803 12.6063 11.1258C17.0289 7.0812 22.2075 4.6053 28.161 3.9375C36.2376 3.0366 43.4259 5.229 49.6503 10.4895C49.7763 10.5966 49.9527 10.6722 49.9527 10.8801C49.8708 11.0187 49.7259 10.9998 49.5999 11.0187C46.6011 11.4156 44.7363 14.0112 45.3159 16.9911C45.5868 18.4023 46.2483 19.6434 46.9791 20.853C47.6154 21.9114 48.2832 22.9509 48.8187 24.0597C50.3118 27.1593 50.6394 30.3786 49.6881 33.6798C48.3588 38.3166 46.9413 42.9408 45.5616 47.5713C45.5238 47.691 45.4545 47.8044 45.3852 47.9619ZM45.6183 55.2384C45.5742 54.8919 45.7443 54.6021 45.8514 54.306C48.7557 45.9333 51.6726 37.5732 54.5706 29.1942C55.7235 25.8615 56.3031 22.4406 55.9188 18.9C55.9062 18.7992 55.881 18.6921 56.0637 18.5346C59.5917 25.5465 60.228 32.76 57.8466 40.2129C55.8621 46.3617 49.3416 54.3312 45.6183 55.2384Z" fill="#5D78FF"/>
</svg>
