<svg width="63" height="63" viewBox="0 0 63 63" fill="none" xmlns="http://www.w3.org/2000/svg">
<g clip-path="url(#clip0_1_8)">
<path d="M23.625 49.875H13.125V44.625H23.625V49.875ZM31.3583 39.2805L39.5141 47.4311L28.7201 49.875L31.3583 39.2805V39.2805ZM63 23.9531L42.2677 44.9426L33.8625 36.5374L54.5948 15.5505L63 23.9531V23.9531ZM47.25 47.3681V57.75H5.25V5.25H24.5753C35.4848 5.25 31.5 21 31.5 21C31.5 21 37.5716 19.3331 42.1759 20.6509L47.2999 15.4639C41.4881 8.0955 32.1746 0 26.7461 0H0V63H52.5V42.0525L47.25 47.3681V47.3681Z" fill="#5D78FF"/>
</g>
<defs>
<clipPath id="clip0_1_8">
<rect width="63" height="63" fill="white"/>
</clipPath>
</defs>
</svg>
