<svg width="63" height="63" viewBox="0 0 63 63" fill="none" xmlns="http://www.w3.org/2000/svg">
<g clip-path="url(#clip0_1_10)">
<path d="M0 0C7.34738 3.15 22.7929 2.50687 21.8059 16.7239L16.1805 22.4621C2.16825 22.7063 2.42813 7.749 0 0H0ZM28.5705 40.4303C35.679 45.8063 59.6085 62.6141 59.6085 62.6141C61.5878 63.9608 63.9712 61.5195 62.5905 59.5639C62.5905 59.5639 45.2471 36.0334 39.7031 29.064C35.3246 23.5489 33.1354 23.3546 25.3706 21.0683L20.244 26.3104C22.701 34.0042 22.9556 36.1804 28.5705 40.4303V40.4303ZM15.7684 49.1767L22.6459 42.2835C21.9634 41.643 21.3622 41.0104 20.8346 40.383L13.9125 47.3209L15.7684 49.1767ZM37.4089 19.8765L50.0194 7.23975L55.6736 12.8966L43.3466 25.2499C44.4964 26.628 45.4808 27.93 46.6174 29.4079L63 12.9937L50.0089 0L32.3662 17.6741C34.2169 18.2752 35.8523 18.942 37.4089 19.8765V19.8765ZM50.106 11.0407L39.6795 21.4909C40.3095 22.0133 40.95 22.6013 41.601 23.2785L51.9593 12.894L50.106 11.0407V11.0407ZM24.6409 43.995L15.1909 53.4634L7.371 55.629L9.534 47.8091L19.1861 38.136C18.2516 36.6056 17.5665 34.9781 16.9312 33.138L4.788 45.3049L0 63L17.7791 58.2986L28.875 47.1844C26.25 45.2734 26.1713 45.2183 24.6409 43.995V43.995Z" fill="#5D78FF"/>
</g>
<defs>
<clipPath id="clip0_1_10">
<rect width="63" height="63" fill="white"/>
</clipPath>
</defs>
</svg>
